<?xml version="1.0" encoding="UTF-8"?>
<svg id="Layer_2" data-name="Layer 2" xmlns="http://www.w3.org/2000/svg" viewBox="0 0 1000 1000">
  <defs>
    <style>
      .cls-1 {
        opacity: .05;
      }

      .cls-2 {
        fill: none;
        stroke: #726658;
        stroke-miterlimit: 10;
        stroke-width: 2px;
      }
    </style>
  </defs>
  <g class="cls-1">
    <path class="cls-2" d="M673.58,101.32v11.56h-9.18v-11.56c0-2.86,2.06-5.17,4.59-5.17,1.27,0,2.42.58,3.24,1.51.84.93,1.35,2.24,1.35,3.66Z"/>
    <rect class="cls-2" x="657.45" y="115.71" width="23.08" height="7.21"/>
    <path class="cls-2" d="M665.93,125.75v12.49c-3.38,0-6.12-3.1-6.12-6.91v-5.58h6.12Z"/>
    <path class="cls-2" d="M678.17,125.75v5.58c0,3.81-2.74,6.91-6.12,6.91v-12.49h6.12Z"/>
    <path class="cls-2" d="M661.89,101.32s0-.04,0-.06l-35.65-1.48c-1.15-1.08-2.62-1.73-4.23-1.73-3.65,0-6.6,3.34-6.6,7.45s2.96,7.45,6.6,7.45c1.61,0,3.09-.65,4.23-1.73l35.65-1.48v-8.42Z"/>
    <path class="cls-2" d="M626.58,114.39c-1.38.9-2.96,1.39-4.57,1.39s-3.22-.51-4.57-1.4l-1.9,43.39c-1.53,1.81-2.48,4.26-2.48,6.96,0,5.57,4,10.09,8.94,10.09s8.94-4.52,8.94-10.09c0-2.7-.95-5.15-2.48-6.96l-1.9-43.38Z"/>
    <path class="cls-2" d="M641.39,169.23v-2.85c0-8.64-4.44-16.09-10.88-19.65l.43,9.92c1.63,2.29,2.52,5.12,2.52,8.08,0,7.13-5.14,12.93-11.45,12.93s-11.45-5.8-11.45-12.93c0-2.96.89-5.79,2.52-8.08l.43-9.92c-6.44,3.55-10.88,11.01-10.88,19.65v18.58h61.15v-15.73h-22.4Z"/>
    <polygon class="cls-2" points="287.46 281.28 294.96 293.2 336.34 260.01 328.83 248.09 287.46 281.28"/>
    <path class="cls-2" d="M286.11,337.89c.61,4.35,3.94,7.69,7.95,7.69s7.35-3.34,7.96-7.69h-15.91Z"/>
    <path class="cls-2" d="M302.02,335.06c-.61-4.35-3.94-7.69-7.96-7.69s-7.35,3.34-7.95,7.69h15.91Z"/>
    <path class="cls-2" d="M311.33,351.08v-14.6c0-10.77-7.73-19.49-17.27-19.49h0c-9.54,0-17.27,8.73-17.27,19.49v32.18h63.12v-17.58h-28.59ZM294.07,348.42c-5.83,0-10.57-5.35-10.57-11.94s4.74-11.94,10.57-11.94,10.57,5.35,10.57,11.94-4.74,11.94-10.57,11.94Z"/>
    <path class="cls-2" d="M313.83,335.94l25-20.06-12.81-20.36-25,20.05c7.34,3.13,12.61,11.05,12.81,20.36Z"/>
    <polygon class="cls-2" points="334.49 264.97 324.57 272.92 330.52 282.38 340.43 274.42 334.49 264.97"/>
    <path class="cls-2" d="M344.25,286.07l-4.7-7.47-5.24,4.2,4.7,7.47c1.03,1.63,3.03,2.02,4.48.86,1.45-1.16,1.79-3.43.76-5.06Z"/>
    <path class="cls-2" d="M347.87,301.74c-.14-.77-.8-1.26-1.48-1.11-2.36.54-4.78-.55-6.18-2.77-.74-1.17-1.11-2.53-1.12-3.9-.84-.47-1.58-1.16-2.13-2.04l-.16-.25c-.56,2.68-.09,5.51,1.37,7.83,1.64,2.6,4.27,4.1,7.03,4.1.56,0,1.13-.06,1.69-.19.68-.15,1.12-.9.98-1.67Z"/>
    <path class="cls-2" d="M352.23,288.22c-1.44-2.29-3.68-3.73-6.09-4.03l.15.24c.57.91.91,1.93,1.01,2.97,1.14.47,2.15,1.31,2.88,2.46,1.39,2.21,1.51,5.15.29,7.49-.35.67-.15,1.54.45,1.94.2.13.42.2.63.2.43,0,.85-.25,1.08-.7,1.71-3.3,1.55-7.45-.41-10.57Z"/>
    <polygon class="cls-2" points="321.28 295.86 312.79 282.37 299.54 293.01 308.02 306.49 321.28 295.86"/>
    <path class="cls-2" d="M836.79,303.6c0,.92-.13,1.85-.43,2.76-1.35,4.21-5.47,6.39-9.21,4.87l-24.04-9.83,2.59-6.45c1.22-3.03,1.39-6.4.49-9.54l25.85,10.56c2.93,1.19,4.74,4.31,4.74,7.63Z"/>
    <polygon class="cls-2" points="783.13 286.76 776.93 302.19 771.11 299.21 777.31 283.78 783.13 286.76"/>
    <path class="cls-2" d="M798.82,279.91c-4.67-2.39-10.17-.06-12.28,5.21l-13.35,33.25c1.1-.28,2.24-.43,3.41-.43,5.81,0,10.89,3.66,13.5,9.04l13.34-33.2c2.12-5.27.05-11.47-4.62-13.87ZM799.81,291.93c-.59,1.46-1.64,2.57-2.96,3.13-.61.26-1.24.39-1.87.39-.75,0-1.49-.18-2.19-.54-1.29-.66-2.27-1.85-2.77-3.35-.5-1.5-.45-3.12.13-4.58.59-1.46,1.64-2.57,2.96-3.13,1.33-.56,2.76-.51,4.06.15,1.29.66,2.27,1.85,2.77,3.35.5,1.5.45,3.12-.13,4.58Z"/>
    <path class="cls-2" d="M796.14,286.59c-.37-.19-.76-.28-1.15-.28-1.06,0-2.08.69-2.55,1.85-.64,1.58-.01,3.46,1.39,4.18,1.4.72,3.06.02,3.7-1.57s.01-3.46-1.39-4.18Z"/>
    <path class="cls-2" d="M810.35,348.29l-20.87-12.96c0-8.04-5.77-14.56-12.9-14.56s-12.9,6.52-12.9,14.56v28.55h61.74v-15.59h-15.08ZM776.59,344.34c-4.39,0-7.97-4.04-7.97-9s3.58-9,7.97-9,7.97,4.04,7.97,9-3.58,9-7.97,9Z"/>
    <path class="cls-2" d="M781.9,333.92c-.57-2.72-2.73-4.75-5.31-4.75s-4.74,2.03-5.31,4.75h10.62Z"/>
    <path class="cls-2" d="M771.28,336.75c.57,2.72,2.73,4.75,5.31,4.75s4.74-2.03,5.31-4.75h-10.62Z"/>
    <path class="cls-2" d="M829.61,314.55c-1.12,0-2.23-.22-3.3-.65l-2.59-1.06c-.09,2.57,1.18,5.07,3.38,6.2,2.9,1.49,6.32.04,7.64-3.24.43-1.07.58-2.19.49-3.28-1.61,1.29-3.56,2.04-5.62,2.04Z"/>
    <path class="cls-2" d="M829.48,322.45c-.42,0-.84-.05-1.25-.12v10.94c0,.78.56,1.42,1.25,1.42s1.25-.63,1.25-1.42v-10.93c-.41.07-.83.11-1.26.11Z"/>
    <path class="cls-2" d="M769.38,289.81h-1c-.35,0-.69.17-.92.46l-4.68,5.73c-.21.26-.33.6-.33.96v31.5c.63-1.65,1.48-3.16,2.51-4.5v-26.44l2.63-3.22,1.8-4.49Z"/>
    <ellipse class="cls-2" cx="339.74" cy="98.69" rx="8.29" ry="9.36"/>
    <path class="cls-2" d="M341.94,122.9c-6.08.71-10.81,6.51-10.81,13.55s4.74,12.84,10.81,13.55v-27.11Z"/>
    <path class="cls-2" d="M344.44,122.9v27.1c6.08-.71,10.81-6.51,10.81-13.55s-4.74-12.84-10.81-13.55Z"/>
    <path class="cls-2" d="M312.8,158.77c-.55-2.16-2.3-3.74-4.39-3.74s-3.84,1.58-4.39,3.74h8.78Z"/>
    <path class="cls-2" d="M339.39,170.04h-17.05v-9.86c0-8.69-6.24-15.74-13.94-15.74h0c-7.7,0-13.94,7.05-13.94,15.74v9.86h-5.93c-3.07,0-5.57,2.81-5.57,6.28v8.63h61.99v-8.63c0-3.47-2.49-6.28-5.57-6.28ZM308.41,168.17c-3.9,0-7.08-3.58-7.08-7.99s3.17-7.99,7.08-7.99,7.08,3.58,7.08,7.99-3.17,7.99-7.08,7.99Z"/>
    <path class="cls-2" d="M304.02,161.6c.55,2.16,2.3,3.74,4.39,3.74s3.84-1.58,4.39-3.74h-8.78Z"/>
    <path class="cls-2" d="M292.45,115.71c-.62-5.82-5-10.33-10.32-10.33s-9.7,4.51-10.32,10.33h20.64Z"/>
    <path class="cls-2" d="M271.81,118.54c.62,5.82,5,10.33,10.32,10.33s9.7-4.51,10.32-10.33h-20.64Z"/>
    <path class="cls-2" d="M356.18,109.21c-2.97,0-5.61-1.58-7.31-4.02-1.86,3.32-5.08,5.55-8.78,5.69,2.69,2.94,6.36,4.76,10.4,4.76,2.59,0,5.03-.74,7.16-2.05v-4.51c-.48.09-.97.14-1.47.14Z"/>
    <path class="cls-2" d="M350.49,81.76c-4.05,0-7.71,1.82-10.4,4.76,3.7.13,6.92,2.37,8.78,5.69,1.7-2.45,4.34-4.02,7.31-4.02.5,0,.99.06,1.47.14v-4.51c-2.13-1.31-4.57-2.05-7.16-2.05Z"/>
    <path class="cls-2" d="M309.66,114.29l22.31-7.14c-1.88-2.2-3.04-5.18-3.04-8.46,0-.89.09-1.76.25-2.6l-37.05,11.86c.23.33.46.66.67,1.01l16.85,5.33Z"/>
    <path class="cls-2" d="M329.45,131c.76-2.43,2-4.6,3.61-6.36l-38.74-12.26c.46,1.49.72,3.08.72,4.75,0,4.51-1.82,8.54-4.67,11.22l29.36,9.29,9.73-6.64Z"/>
    <path class="cls-2" d="M315.81,143.62c5.36,3.06,9.05,9.33,9.05,16.56v.3l12.87-8.78c-5.33-2.45-9.11-8.36-9.11-15.25,0-.55.03-1.09.07-1.62l-12.88,8.79Z"/>
    <path class="cls-2" d="M136.15,148.45c2.17-2.99,5.14-5.19,8.55-6.21l-10.6-18.58c1.47-3.39,1.39-7.53-.55-10.93-2.95-5.17-9.05-6.66-13.62-3.33-4.58,3.33-5.89,10.22-2.95,15.38,1.94,3.4,5.25,5.19,8.58,5.08l10.6,18.57Z"/>
    <path class="cls-2" d="M185.67,96.27c1.38,2.42.76,5.66-1.38,7.22-2.15,1.56-5.01.86-6.39-1.56-1.38-2.42-.76-5.66,1.38-7.22,2.15-1.56,5.01-.86,6.39,1.56Z"/>
    <path class="cls-2" d="M175.78,123.54c-.69,0-1.25-.63-1.25-1.42v-7.22c0-.56.29-1.07.74-1.29l6-3.02c.63-.32,1.37,0,1.66.72.28.71,0,1.55-.63,1.87l-5.26,2.65v6.3c0,.78-.56,1.42-1.25,1.42Z"/>
    <path class="cls-2" d="M187.78,123.54c-.69,0-1.25-.63-1.25-1.42v-6.3l-5.26-2.65c-.63-.32-.92-1.16-.63-1.87.28-.71,1.02-1.04,1.66-.72l6,3.02c.45.23.74.73.74,1.29v7.22c0,.78-.56,1.42-1.25,1.42Z"/>
    <path class="cls-2" d="M150.15,153.68v13.01c2.65-.65,4.64-3.32,4.64-6.5s-1.99-5.85-4.64-6.5Z"/>
    <path class="cls-2" d="M147.64,153.68c-2.65.65-4.64,3.32-4.64,6.5s1.99,5.85,4.64,6.5v-13.01Z"/>
    <path class="cls-2" d="M179.88,170.04h-17.05v-9.86c0-8.69-6.24-15.74-13.94-15.74h0c-7.7,0-13.94,7.05-13.94,15.74v9.86h-5.93c-3.07,0-5.57,2.81-5.57,6.28v8.63h61.99v-8.63c0-3.47-2.49-6.28-5.57-6.28ZM148.89,169.68c-4.63,0-8.41-4.26-8.41-9.49s3.77-9.49,8.41-9.49,8.41,4.26,8.41,9.49-3.77,9.49-8.41,9.49Z"/>
    <path class="cls-2" d="M175.28,95.79h-17.42c-.09-.18-.17-.36-.27-.54-1.88-3.3-5.78-4.25-8.7-2.12-2.92,2.13-3.76,6.52-1.88,9.82,1.88,3.3,5.78,4.25,8.7,2.12.94-.69,1.67-1.61,2.16-2.66h17.42c-.86-2.15-.82-4.56,0-6.62Z"/>
    <path class="cls-2" d="M181.78,107.15c-.43,0-.85-.06-1.26-.14v4.87c0,.78.56,1.42,1.25,1.42s1.25-.63,1.25-1.42v-4.87c-.41.08-.83.14-1.25.14Z"/>
    <path class="cls-2" d="M135.65,111.21c.74,1.29,1.26,2.68,1.58,4.1l10.57-7.69c-1.15-.77-2.15-1.83-2.9-3.14-.75-1.31-1.2-2.77-1.34-4.28l-10.56,7.68c1.02.93,1.92,2.04,2.65,3.33Z"/>
    <path class="cls-2" d="M501.51,144.57c-3.68,0-6.68-3.38-6.68-7.54,0-.78.56-1.42,1.25-1.42s1.25.63,1.25,1.42c0,2.6,1.87,4.71,4.17,4.71s4.17-2.11,4.17-4.71-1.87-4.71-4.17-4.71c-.69,0-1.25-.63-1.25-1.42s.56-1.42,1.25-1.42c3.68,0,6.68,3.38,6.68,7.54s-3,7.54-6.68,7.54Z"/>
    <path class="cls-2" d="M463.63,94.66c-2.86.39-5.57,2.13-7.3,5.05-3.16,5.33-1.9,12.54,2.82,16.1,1.39,1.05,2.93,1.66,4.48,1.87v-23.03Z"/>
    <path class="cls-2" d="M470.6,96.53c-1.38-1.05-2.91-1.65-4.45-1.87v23.02c2.85-.4,5.54-2.14,7.27-5.05,3.16-5.33,1.9-12.54-2.82-16.1Z"/>
    <path class="cls-2" d="M508.38,104.78c-.32-2.03-1.34-3.92-2.98-5.16-3.2-2.42-7.54-1.46-9.69,2.16-.55.93-.91,1.96-1.07,3h13.74Z"/>
    <path class="cls-2" d="M494.65,107.61c.33,2.01,1.35,3.88,2.98,5.11,3.2,2.42,7.54,1.46,9.69-2.16.55-.92.9-1.93,1.06-2.95h-13.73Z"/>
    <path class="cls-2" d="M458.44,144.76c-.53-1.8-2.02-3.1-3.78-3.1s-3.25,1.31-3.78,3.1h7.56Z"/>
    <path class="cls-2" d="M450.88,147.6c.53,1.8,2.02,3.1,3.78,3.1s3.25-1.31,3.78-3.1h-7.56Z"/>
    <path class="cls-2" d="M497.03,169.73l-31-23.8c0-7.09-5.09-12.84-11.37-12.84s-11.37,5.75-11.37,12.84v39.03h63.65v-15.23h-9.91ZM454.66,153.53c-3.59,0-6.51-3.3-6.51-7.35s2.92-7.35,6.51-7.35,6.51,3.3,6.51,7.35-2.92,7.35-6.51,7.35Z"/>
    <path class="cls-2" d="M501.51,116.89c-.42,0-.84-.04-1.25-.1v14.06c0,.78.56,1.42,1.25,1.42s1.25-.63,1.25-1.42v-14.06c-.41.06-.83.1-1.26.1Z"/>
    <path class="cls-2" d="M492.85,110.54c-.29-.73-.51-1.49-.65-2.3-.39-2.21-.15-4.44.65-6.45h-15.81c.79,2.81.82,5.87,0,8.75h15.8Z"/>
    <path class="cls-2" d="M454.66,130.26c3.27,0,6.28,1.3,8.66,3.45l3.38-13.24c-.6.1-1.21.15-1.83.15-2.54,0-5-.85-7.11-2.45-.41-.31-.79-.65-1.16-1l-3.36,13.17c.47-.05.95-.08,1.43-.08Z"/>
    <path class="cls-2" d="M658.12,534.37v17.58h-63.12v-44.33h2.93c1.42,7.34,7.22,12.84,14.13,12.84,2.57,0,4.98-.76,7.07-2.1l15,16.01h23.98Z"/>
    <path class="cls-2" d="M658.12,496.71v14.83h-33.18c1.02-2.23,1.59-4.75,1.59-7.42s-.57-5.18-1.58-7.41h33.17Z"/>
    <path class="cls-2" d="M685.66,479.56h-13.15v-19.11c0-4.1,2.94-7.43,6.58-7.43h0c3.63,0,6.58,3.32,6.58,7.43v19.11Z"/>
    <path class="cls-2" d="M610.81,490.7c-6.01.71-10.7,6.45-10.7,13.42s4.69,12.72,10.7,13.42v-26.85Z"/>
    <path class="cls-2" d="M613.32,490.7v26.85c6.01-.71,10.7-6.45,10.7-13.42s-4.69-12.72-10.7-13.42Z"/>
    <rect class="cls-2" x="675" y="482.39" width="8.16" height="10.94"/>
    <path class="cls-2" d="M671.41,507.38l3.95-11.22h-2.7l-3.84,10.93c-.16.47-.1,1,.18,1.4l3.52,5.03c.25.35.61.54.99.54.27,0,.55-.1.78-.3.54-.48.64-1.37.21-1.99l-3.07-4.39Z"/>
    <path class="cls-2" d="M689.34,507.09l-3.84-10.93h-2.7l3.95,11.22-3.07,4.39c-.43.61-.34,1.5.21,1.99.23.2.5.3.78.3.37,0,.74-.18.99-.54l3.52-5.03c.28-.4.35-.93.18-1.4Z"/>
    <rect class="cls-2" x="634.55" y="464.28" width="35.45" height="10.61"/>
    <rect class="cls-2" x="639.31" y="477.73" width="13.14" height="16.15"/>
    <rect class="cls-2" x="749.73" y="540.35" width="115.92" height="11.59"/>
    <path class="cls-2" d="M767.37,513.86c-.03-.28-.07-.55-.12-.83-1.1-5.6-6.01-9.13-10.97-7.89-3.86.97-6.6,4.54-7.11,8.72h18.2Z"/>
    <path class="cls-2" d="M749.16,516.69c.03.28.07.55.12.83,1.1,5.6,6.01,9.13,10.97,7.89,3.86-.97,6.6-4.54,7.11-8.72h-18.2Z"/>
    <path class="cls-2" d="M778.14,472.92c-1.76.36-3.39,1.48-4.48,3.27-2.18,3.58-1.38,8.48,1.78,10.94.84.65,1.76,1.06,2.7,1.26v-15.47Z"/>
    <path class="cls-2" d="M783.34,474.18c-.84-.65-1.76-1.06-2.7-1.26v15.47c1.76-.36,3.39-1.48,4.48-3.27,2.18-3.58,1.38-8.48-1.79-10.94Z"/>
    <path class="cls-2" d="M848.01,516.69c.51,4.18,3.25,7.75,7.11,8.72,4.96,1.24,9.87-2.29,10.97-7.89.05-.28.09-.56.13-.83h-18.2Z"/>
    <path class="cls-2" d="M866.21,513.86c-.51-4.18-3.25-7.75-7.11-8.72-4.96-1.24-9.87,2.29-10.97,7.89-.05.28-.09.56-.12.83h18.2Z"/>
    <path class="cls-2" d="M834.74,472.92c-.94.19-1.86.6-2.7,1.26-3.17,2.46-3.97,7.36-1.78,10.94,1.09,1.79,2.73,2.91,4.48,3.27v-15.47Z"/>
    <path class="cls-2" d="M841.73,476.19c-1.09-1.79-2.73-2.91-4.48-3.27v15.47c.94-.19,1.86-.6,2.7-1.26,3.17-2.46,3.97-7.36,1.78-10.94Z"/>
    <path class="cls-2" d="M818.05,487.91l-8.15,4c-.64.31-.93,1.15-.65,1.86.2.53.67.85,1.15.85.17,0,.34-.04.5-.12l8.15-4-1-2.6Z"/>
    <path class="cls-2" d="M805.48,491.9l-8.15-4-1,2.6,8.15,4c.16.08.33.12.5.12.48,0,.95-.32,1.15-.85.28-.72-.02-1.55-.65-1.86Z"/>
    <path class="cls-2" d="M788.85,480.98c-.05,1.99-.59,3.98-1.66,5.74-.34.55-.73,1.05-1.14,1.51l7.08,3.47,2.79-7.25-7.07-3.47Z"/>
    <path class="cls-2" d="M828.19,486.73c-1.07-1.76-1.61-3.75-1.66-5.74l-7.07,3.47,2.79,7.25,7.08-3.47c-.41-.46-.8-.96-1.14-1.51Z"/>
    <path class="cls-2" d="M856.44,502.09l-11.86-16.93c-.7,1.72-1.79,3.2-3.21,4.3-1.41,1.09-3.02,1.73-4.71,1.86l9.79,18.55c1.77-4.43,5.63-7.5,9.99-7.79Z"/>
    <path class="cls-2" d="M768.93,509.88l9.79-18.55c-1.69-.13-3.3-.77-4.71-1.86-1.42-1.1-2.51-2.59-3.21-4.3l-11.86,16.93c4.36.29,8.22,3.36,10,7.79Z"/>
    <path class="cls-2" d="M785.56,537.52l-17.01-15.99c-1.56,3.26-4.31,5.78-7.76,6.64-.84.21-1.69.32-2.54.32-1.73,0-3.39-.44-4.9-1.24l1.05,10.27h31.15Z"/>
    <path class="cls-2" d="M860.97,537.52l1.05-10.27c-1.5.79-3.17,1.24-4.89,1.24h0c-.85,0-1.71-.11-2.54-.32-3.45-.86-6.2-3.38-7.76-6.64l-17.01,15.99h31.15Z"/>
    <rect class="cls-2" x="766.07" y="714.93" width="63.12" height="17.58"/>
    <path class="cls-2" d="M832.01,660.11l16.68,6.71c1.98-6.27-.92-13.16-6.47-15.39l-6.63-2.67-7.86-3.16-7.16,22.7,7.86,3.16,3.58-11.35Z"/>
    <path class="cls-2" d="M842.06,669.61c-1.14,3.59-4.63,5.47-7.81,4.18l-3.46-1.4,2.06-6.5,9.21,3.71Z"/>
    <path class="cls-2" d="M801.96,659.4l-5.97,22.66c-2.58-4.21-6.89-6.97-11.76-6.97-1.43,0-2.81.24-4.11.69l7.88-21.9c1.44,2.54,3.58,4.45,6.14,5.47,1.29.51,2.63.76,4,.76s2.62-.25,3.82-.71Z"/>
    <path class="cls-2" d="M802.9,655.83h0s-.17.64-.17.64l-.61-.19c.14-.08.28-.15.42-.24.13-.07.24-.14.36-.22Z"/>
    <path class="cls-2" d="M802.9,655.84l-.17.63-.61-.19c.14-.08.28-.15.42-.24.13-.07.24-.14.36-.21Z"/>
    <path class="cls-2" d="M823.6,650.22l-3.65,11.54-14.51-4.46c1.84-1.56,3.28-3.74,4.08-6.31.78-2.5.89-5.15.35-7.68l13.72,6.9Z"/>
    <path class="cls-2" d="M810.04,705.77v6.33h-43.97v-14.74h4.96c2.14,5.86,7.26,10,13.21,10s11.07-4.14,13.21-10h3.55l9.04,8.41Z"/>
    <path class="cls-2" d="M807.61,645.06c-.46-3.9-2.79-7.38-6.31-8.77-4.98-1.97-10.44.99-12.19,6.61-.22.72-.37,1.44-.46,2.16h18.95Z"/>
    <path class="cls-2" d="M788.67,647.9c.46,3.9,2.79,7.37,6.31,8.77,4.98,1.97,10.44-.99,12.19-6.61.22-.71.37-1.43.46-2.15h-18.95Z"/>
    <path class="cls-2" d="M782.98,678c-5.92.71-10.53,6.36-10.53,13.22s4.61,12.52,10.53,13.22v-26.45Z"/>
    <path class="cls-2" d="M785.49,678v26.45c5.92-.71,10.53-6.36,10.53-13.22s-4.61-12.52-10.53-13.22Z"/>
    <path class="cls-2" d="M674.51,666.02c.56-1.09.88-2.36.88-3.71,0-4.12-2.96-7.47-6.61-7.47s-6.61,3.34-6.61,7.47c0,1.35.32,2.62.88,3.71h11.47Z"/>
    <path class="cls-2" d="M635.77,679.75c-1.19,0-2.33.2-3.42.54l-10.95-11.06c-.18,2.77-1.17,5.42-2.84,7.53-1.67,2.1-3.9,3.5-6.32,4.02l10.96,11.07c-.11.75-.18,1.51-.18,2.29,0,7.95,5.71,14.39,12.74,14.39s12.74-6.44,12.74-14.39-5.71-14.39-12.74-14.39ZM637.02,703.23c0,.78-.56,1.42-1.25,1.42s-1.25-.63-1.25-1.42v-18.17c0-.78.56-1.42,1.25-1.42s1.25.63,1.25,1.42v18.17Z"/>
    <path class="cls-2" d="M636.45,650.4c-1.51-.59-2.87-1.64-3.92-3.06-1.07-1.46-1.7-3.17-1.92-4.93l-17.62,16.47c-3.24-1.25-6.97-.29-9.39,2.77-3.23,4.08-2.92,10.35.69,14,3.62,3.65,9.17,3.3,12.4-.78,1.8-2.27,2.5-5.22,2.14-8.01l17.61-16.47ZM614.22,669.68h-8.15c-.69,0-1.25-.63-1.25-1.42s.56-1.42,1.25-1.42h8.15c.69,0,1.25.63,1.25,1.42s-.56,1.42-1.25,1.42Z"/>
    <path class="cls-2" d="M644.63,637.15c-.14-.24-.28-.48-.45-.71-2.22-3.03-6.2-3.45-8.88-.94-2.68,2.51-3.06,7-.84,10.03,2.22,3.03,6.2,3.45,8.88.94.52-.48.95-1.04,1.29-1.65h11.02s19.15,0,19.15,0v-7.67h-30.18ZM640.58,643.69c0,.78-.56,1.42-1.25,1.42s-1.25-.63-1.25-1.42v-5.41c0-.78.56-1.42,1.25-1.42s1.25.63,1.25,1.42v5.41Z"/>
    <path class="cls-2" d="M655.74,681.73c-.69,0-1.25-.63-1.25-1.42v-5.26c0-.25.06-.51.18-.72l4.76-9.03c.23-.43.64-.69,1.08-.69h8.28c.69,0,1.25.63,1.25,1.42s-.56,1.42-1.25,1.42h-7.57l-4.22,8v4.87c0,.78-.56,1.42-1.25,1.42Z"/>
    <path class="cls-2" d="M655.74,676.47c-.42,0-.83-.24-1.07-.68-.36-.67-.18-1.54.41-1.95l13.04-9.03c.59-.41,1.36-.2,1.72.47.36.67.18,1.54-.41,1.95l-13.04,9.03c-.2.14-.43.21-.65.21Z"/>
    <path class="cls-2" d="M681.82,681.73c-.69,0-1.25-.63-1.25-1.42v-4.87l-4.21-8h-7.57c-.69,0-1.25-.63-1.25-1.42s.56-1.42,1.25-1.42h8.28c.44,0,.85.26,1.08.69l4.76,9.03c.12.22.18.47.18.72v5.26c0,.78-.56,1.42-1.25,1.42Z"/>
    <path class="cls-2" d="M681.82,676.47c-.22,0-.45-.07-.65-.21l-13.04-9.03c-.59-.41-.78-1.28-.41-1.95.36-.67,1.14-.88,1.72-.47l13.04,9.03c.59.41.78,1.28.41,1.95-.24.44-.65.68-1.07.68Z"/>
    <path class="cls-2" d="M667.52,647.66v7.18c0,.78.56,1.42,1.25,1.42s1.25-.63,1.25-1.42v-7.18h-2.51Z"/>
    <path class="cls-2" d="M658.53,714.93l-8.35-15.18c-2.07,6.75-7.74,11.62-14.41,11.62s-12.34-4.87-14.41-11.62l-8.35,15.18h-8.8v17.58h63.12v-17.58h-8.8Z"/>
    <path class="cls-2" d="M514.8,685.76v46.75h-63.12v-17.58h19.95v-12.85h4.52c2.72,4.31,7.18,7.14,12.22,7.14,8.26,0,14.98-7.58,14.98-16.92,0-2.31-.42-4.53-1.16-6.54h12.6Z"/>
    <path class="cls-2" d="M455.33,670.95s0-.03,0-.05l.48.15-.31.48c-.05-.2-.1-.4-.16-.59Z"/>
    <path class="cls-2" d="M473.39,692.3c0,1.16.1,2.29.3,3.38l-20.01-10.85c1.7-1.47,3.04-3.46,3.83-5.81.79-2.33.99-4.81.59-7.21l21.3,6.93c-3.65,3.1-6.02,8.02-6.02,13.56Z"/>
    <path class="cls-2" d="M489.63,678.29v28.03c6.3-.71,11.22-6.71,11.22-14.01s-4.92-13.3-11.22-14.01Z"/>
    <path class="cls-2" d="M487.12,678.29c-6.3.71-11.22,6.71-11.22,14.01s4.92,13.3,11.22,14.01v-28.03Z"/>
    <path class="cls-2" d="M455.71,672.82c-.45-3.72-2.64-7.06-5.96-8.49-4.85-2.09-10.27.66-12.12,6.13-.26.78-.43,1.57-.52,2.36h18.61Z"/>
    <path class="cls-2" d="M437.09,675.65c.45,3.72,2.64,7.06,5.96,8.49,4.85,2.09,10.27-.66,12.12-6.13.26-.78.43-1.57.52-2.36h-18.61Z"/>
    <path class="cls-2" d="M471.07,631.41c-1.46.32-2.83,1.19-3.85,2.58-2.33,3.19-1.93,7.9.89,10.53.89.83,1.91,1.35,2.96,1.57v-14.68Z"/>
    <path class="cls-2" d="M476.54,632.99c-.89-.83-1.91-1.35-2.96-1.57v14.68c1.46-.32,2.83-1.19,3.85-2.58,2.33-3.19,1.93-7.9-.89-10.53Z"/>
    <rect class="cls-2" x="483.67" y="646.09" width="8.24" height="13.51"/>
    <polygon class="cls-2" points="500.23 646.09 500.23 672.2 503.55 676.27 506.86 672.2 506.86 646.09 500.23 646.09"/>
    <rect class="cls-2" x="482.42" y="626.62" width="10.73" height="4.79"/>
    <rect class="cls-2" x="498.18" y="626.62" width="10.73" height="4.79"/>
    <path class="cls-2" d="M470.31,648.79l-13.04,20s0-.03-.02-.05c-1.3-3.28-3.65-5.78-6.61-7.06-.52-.22-1.05-.41-1.57-.54l14.9-18.25c.56,1.44,1.4,2.75,2.54,3.81,1.1,1.03,2.41,1.74,3.8,2.09Z"/>
    <path class="cls-2" d="M455.79,671.06l-.31.48h0c-.05-.19-.1-.39-.15-.59,0-.02,0-.03,0-.05l.48.15Z"/>
    <path class="cls-2" d="M480.53,634.24c.47,1.09.78,2.28.88,3.53.16,1.92-.15,3.8-.88,5.49h32.5v-9.02h-32.5Z"/>
    <polygon class="cls-2" points="322.26 714.93 299.08 698.67 278.28 698.67 270.38 704.45 270.38 714.93 270.38 732.51 333.5 732.51 333.5 714.93 322.26 714.93"/>
    <path class="cls-2" d="M298.73,695.84h-20.11l2.37-19.63c2.12,1.89,4.78,3.02,7.68,3.02s5.58-1.13,7.69-3.02l2.37,19.63Z"/>
    <path class="cls-2" d="M310.93,647.03l-10.33,14.34c-1.16-4.63-4.4-8.28-8.5-9.6l12.69-11.67c.49,1.55,1.29,3.01,2.38,4.25,1.09,1.22,2.37,2.12,3.76,2.68Z"/>
    <path class="cls-2" d="M354.4,632.09v8.28h-30.57c.45-1.3.69-2.71.69-4.14s-.23-2.84-.69-4.14h30.57Z"/>
    <path class="cls-2" d="M350.37,643.21v11.09c0,4.43-3.19,8.02-7.11,8.02s-7.1-3.59-7.1-8.02v-11.09h14.21Z"/>
    <rect class="cls-2" x="340.79" y="615.58" width="4.94" height="13.68"/>
    <rect class="cls-2" x="326.18" y="622.09" width="9.98" height="7.18"/>
    <path class="cls-2" d="M335.01,659.85l-6.24,5.11v6c0,.78-.56,1.42-1.25,1.42s-1.25-.63-1.25-1.42v-6.72c0-.45.19-.88.52-1.15l7.21-5.9c.23.95.58,1.84,1.02,2.66Z"/>
    <path class="cls-2" d="M360.26,664.24v6.72c0,.78-.57,1.42-1.25,1.42s-1.25-.63-1.25-1.42v-6l-6.24-5.11c.44-.82.79-1.72,1.02-2.67l7.21,5.91c.33.27.52.7.52,1.15Z"/>
    <path class="cls-2" d="M278.87,666.64c.62,5.5,4.77,9.76,9.81,9.76s9.19-4.26,9.81-9.76h-19.62Z"/>
    <path class="cls-2" d="M298.49,663.81c-.62-5.5-4.77-9.76-9.81-9.76s-9.19,4.26-9.81,9.76h19.62Z"/>
    <path class="cls-2" d="M319.77,630.12c-1.18-1.33-2.64-2.12-4.16-2.41v17.04c1.52-.28,2.99-1.08,4.16-2.41,2.99-3.37,2.99-8.85,0-12.22Z"/>
    <path class="cls-2" d="M313.1,627.71c-1.52.28-2.98,1.08-4.15,2.41-2.99,3.37-2.99,8.85,0,12.22,1.17,1.32,2.63,2.12,4.15,2.41v-17.03Z"/>
    <rect class="cls-2" x="118.96" y="714.93" width="63.12" height="17.58"/>
    <polygon class="cls-2" points="169.53 712.1 131.29 712.1 126.43 705.01 141.68 687.79 169.53 712.1"/>
    <path class="cls-2" d="M193.94,658.42l-8.14,9.19-18.16-20.51c3.82-1.46,6.85-4.88,8.14-9.2l18.17,20.52Z"/>
    <path class="cls-2" d="M160.83,647.56l-22.6,25.53-2.12-8.93-7.91-2.39,22.61-25.53c1.05,5.66,5,10.13,10.02,11.32Z"/>
    <path class="cls-2" d="M119.55,674.29c-1.21.27-2.37.93-3.31,1.99-1.22,1.38-1.89,3.2-1.89,5.15s.67,3.77,1.89,5.15c.92,1.04,2.06,1.72,3.31,2v-14.29Z"/>
    <path class="cls-2" d="M122.06,674.29v14.28c1.24-.28,2.39-.96,3.31-2,2.51-2.84,2.51-7.46,0-10.3-.94-1.06-2.09-1.72-3.31-1.99Z"/>
    <path class="cls-2" d="M134.06,666.47l-18.11-5.48-13.25,14.96,4.85,20.44,18.1,5.48,13.25-14.96-4.85-20.44ZM127.14,688.59c-1.69,1.91-3.94,2.96-6.33,2.96s-4.64-1.05-6.33-2.96c-1.69-1.91-2.62-4.45-2.62-7.15s.93-5.24,2.62-7.15c1.73-1.95,3.99-2.93,6.26-2.95.02,0,.05,0,.07,0s.05,0,.07,0c2.27.02,4.54,1,6.27,2.95,3.49,3.94,3.49,10.36,0,14.3Z"/>
    <path class="cls-2" d="M153.13,634.65c.62,5.85,5.02,10.38,10.37,10.38s9.75-4.54,10.37-10.38h-20.73Z"/>
    <path class="cls-2" d="M173.86,631.82c-.62-5.85-5.02-10.38-10.37-10.38s-9.75,4.53-10.37,10.38h20.73Z"/>
    <path class="cls-2" d="M201.37,674l-8.84-9.98-1.77,2,8.84,9.98c.24.28.57.41.89.41s.64-.14.89-.41c.49-.55.49-1.45,0-2Z"/>
    <path class="cls-2" d="M149.83,478.89l-16.84-7.57,6.27-17.78,16.84,7.57c4.35,1.95,6.47,7.52,4.74,12.43h0c-1.73,4.91-6.66,7.31-11.01,5.35Z"/>
    <path class="cls-2" d="M165.06,502.79c-5.6.7-9.95,6.06-9.95,12.57s4.35,11.86,9.95,12.57v-25.14Z"/>
    <path class="cls-2" d="M167.57,502.79v25.14c5.6-.7,9.95-6.06,9.95-12.57s-4.35-11.86-9.95-12.57Z"/>
    <path class="cls-2" d="M138.94,498.28c-.43-2.85-2.11-5.39-4.66-6.54-3.89-1.75-8.3.39-9.85,4.79-.2.58-.34,1.16-.43,1.75h14.94Z"/>
    <path class="cls-2" d="M124,501.11c.43,2.85,2.11,5.39,4.66,6.53,3.89,1.75,8.3-.39,9.85-4.79.2-.58.34-1.16.43-1.75h-14.94Z"/>
    <path class="cls-2" d="M175.72,478.71l-12.16-5.46c-.11.45-.24.9-.39,1.35-.16.44-.34.87-.54,1.28l12.16,5.47c.15.07.31.1.46.1.5,0,.97-.34,1.17-.89.26-.73-.06-1.55-.7-1.84Z"/>
    <path class="cls-2" d="M131.47,488.3c1.28,0,2.53.27,3.73.81,1.68.76,3.08,1.98,4.14,3.47l4.67-13.26-9.25-4.16-4.67,13.25c.45-.07.92-.11,1.38-.11Z"/>
    <path class="cls-2" d="M177.47,524.34c-2.49,3.93-6.56,6.51-11.15,6.51-5.23,0-9.78-3.32-12.09-8.19l-19.79,11.71h-14.4v17.58h63.12v-17.58l-5.69-10.03Z"/>
    <path class="cls-2" d="M152.6,515.36c0-5.18,2.28-9.77,5.75-12.58l-17.17-6.11c.57,2.31.51,4.84-.34,7.24-.84,2.37-2.31,4.28-4.14,5.53l16.15,8.86c-.16-.96-.26-1.94-.26-2.95Z"/>
    <rect class="cls-2" x="271.08" y="534.37" width="63.12" height="17.58"/>
    <polygon class="cls-2" points="334.02 502.05 324.91 491.77 337.26 477.84 346.36 488.12 334.02 502.05"/>
    <path class="cls-2" d="M306.02,467.85v-20.29c-1.94.3-3.81,1.28-5.3,2.96-3.62,4.09-3.62,10.72,0,14.81,1.51,1.7,3.41,2.69,5.37,2.97-.04-.14-.07-.29-.07-.45Z"/>
    <path class="cls-2" d="M313.84,450.52c-1.49-1.68-3.36-2.66-5.3-2.96v20.29c0,.16-.03.31-.07.45,1.96-.28,3.87-1.27,5.37-2.97,3.62-4.09,3.62-10.72,0-14.81Z"/>
    <path class="cls-2" d="M291.73,488.89c-.63-6.8-5.72-12.11-11.91-12.11s-11.28,5.3-11.91,12.11h23.82Z"/>
    <path class="cls-2" d="M267.91,491.72c.63,6.8,5.72,12.11,11.91,12.11s11.28-5.3,11.91-12.11h-23.82Z"/>
    <polygon class="cls-2" points="346.86 511.12 340.28 509.12 337.09 505.53 337.74 501.86 334.02 506.06 323.14 493.78 321.83 495.26 327.86 509.01 336.86 519.18 352.57 517.57 346.86 511.12"/>
    <polygon class="cls-2" points="352.53 481.16 340.35 474.35 339.03 475.83 349.91 488.12 346.19 492.32 349.44 491.59 352.62 495.18 354.39 502.61 360.11 509.06 361.53 491.32 352.53 481.16"/>
    <path class="cls-2" d="M318.23,462.82c-.57,1.64-1.44,3.18-2.62,4.51-1.16,1.31-2.51,2.3-3.99,2.96l14.39,16.24,6.61-7.46-14.39-16.25Z"/>
    <path class="cls-2" d="M293.83,486.22l13.29-15c-3.09-.05-5.99-1.42-8.17-3.89-1.69-1.91-2.76-4.27-3.2-6.74l-12.31,13.9c5.08,1.48,9.08,6,10.39,11.74Z"/>
    <path class="cls-2" d="M314.58,531.54l-22.56-32.45c-2.58,4.55-7.08,7.57-12.2,7.57-3.28,0-6.3-1.25-8.74-3.34v28.22h43.5Z"/>
    <path class="cls-2" d="M198.46,803.93v42.02h-10.19c.23-1.33.34-2.71.34-4.12,0-12.3-8.86-22.32-19.76-22.32-8.64,0-16,6.29-18.67,15.01l-21.25-13.02h-24.19v-17.58h93.72Z"/>
    <path class="cls-2" d="M155.2,857.96l-23.12,9.41v-16.57l17.01-9.25c0,.09,0,.19,0,.28,0,6.33,2.35,12.07,6.12,16.13Z"/>
    <ellipse class="cls-2" cx="114.57" cy="889.55" rx="4.02" ry="4.54"/>
    <path class="cls-2" d="M114.57,896.92v10.1l-3.7,3.37v11.9l-5.56-9.65v-16.57l3.39-3.3c1.05,2.45,3.29,4.14,5.87,4.14Z"/>
    <ellipse class="cls-2" cx="135.57" cy="889.55" rx="4.02" ry="4.54"/>
    <path class="cls-2" d="M144.83,896.08v16.57l-5.56,9.65v-11.9l-3.7-3.37v-10.1c2.58,0,4.81-1.69,5.87-4.14l3.39,3.3Z"/>
    <path class="cls-2" d="M135.57,877.82v4.36c-3.36,0-6.15,2.89-6.49,6.57h-8.02c-.34-3.68-3.13-6.57-6.49-6.57v-4.36h21Z"/>
    <path class="cls-2" d="M167.59,822.42c-8.94.73-16,9.13-16,19.41s7.06,18.68,16,19.41v-38.82Z"/>
    <path class="cls-2" d="M170.1,822.42v38.82c8.94-.73,16-9.13,16-19.41s-7.06-18.68-16-19.41Z"/>
    <rect class="cls-2" x="120.57" y="845.95" width="9" height="29.04"/>
    <path class="cls-2" d="M321.42,847.37l-.97,15.33c-1.59-1.41-3.59-2.24-5.76-2.24s-4.17.83-5.76,2.24l-.97-15.33c2.02,1.19,4.31,1.86,6.73,1.86s4.72-.67,6.73-1.86Z"/>
    <path class="cls-2" d="M361.55,803.93v17.58h-10.4l-18.96,9.18h-3c-.89-8.15-7.05-14.47-14.51-14.47s-13.62,6.33-14.51,14.47h-3l-18.96-9.18h-10.4v-17.58h93.73Z"/>
    <path class="cls-2" d="M306.33,875.94l-9.72,4.58v4.14c0,.78-.56,1.42-1.25,1.42s-1.25-.63-1.25-1.42v-5.08c0-.58.3-1.09.77-1.31l10.62-4.99c.18.94.46,1.84.84,2.67Z"/>
    <path class="cls-2" d="M335.27,879.58v5.08c0,.78-.56,1.42-1.25,1.42s-1.25-.63-1.25-1.42v-4.14l-9.72-4.58c.38-.83.67-1.73.84-2.67l10.62,4.99c.47.23.77.74.77,1.31Z"/>
    <path class="cls-2" d="M313.43,819.11c-6.1.71-10.87,6.53-10.87,13.61s4.76,12.9,10.87,13.61v-27.22Z"/>
    <path class="cls-2" d="M315.94,819.11v27.22c6.1-.71,10.86-6.53,10.86-13.61s-4.76-12.9-10.86-13.61Z"/>
    <path class="cls-2" d="M321.46,869.67c-.59-3.62-3.39-6.36-6.77-6.36s-6.18,2.74-6.77,6.36h13.54Z"/>
    <path class="cls-2" d="M307.92,872.5c.59,3.62,3.39,6.36,6.77,6.36s6.18-2.74,6.77-6.36h-13.54Z"/>
    <path class="cls-2" d="M352.93,896.56h-76.48c-4.76,0-8.62,4.36-8.62,9.73s3.86,9.73,8.62,9.73h76.48c4.76,0,8.62-4.36,8.62-9.73s-3.86-9.73-8.62-9.73ZM278.09,910.98c-2.29,0-4.15-2.1-4.15-4.68s1.86-4.68,4.15-4.68,4.15,2.1,4.15,4.68-1.86,4.68-4.15,4.68ZM296.39,910.98c-2.29,0-4.15-2.1-4.15-4.68s1.86-4.68,4.15-4.68,4.15,2.1,4.15,4.68-1.86,4.68-4.15,4.68ZM314.69,910.98c-2.29,0-4.15-2.1-4.15-4.68s1.86-4.68,4.15-4.68,4.15,2.1,4.15,4.68-1.86,4.68-4.15,4.68ZM332.98,910.98c-2.29,0-4.15-2.1-4.15-4.68s1.86-4.68,4.15-4.68,4.15,2.1,4.15,4.68-1.86,4.68-4.15,4.68ZM351.28,910.98c-2.29,0-4.15-2.1-4.15-4.68s1.86-4.68,4.15-4.68,4.15,2.1,4.15,4.68-1.86,4.68-4.15,4.68Z"/>
    <rect class="cls-2" x="306.95" y="885.75" width="15.48" height="7.98"/>
    <path class="cls-2" d="M453.86,858.64v13.13h-12.13v-13.16c1.83,1.06,3.9,1.64,6.05,1.64.64,0,1.3-.05,1.94-.15,1.46-.24,2.86-.74,4.14-1.46Z"/>
    <path class="cls-2" d="M459.9,851.8c1.23-2.76,1.68-5.87,1.28-8.99-.4-3.17-1.66-5.99-3.51-8.21l25.82-4.2v5.39c0,4.27,1,8.27,2.78,11.73l-26.36,4.29Z"/>
    <rect class="cls-2" x="438.13" y="874.6" width="19.25" height="10.05"/>
    <polygon class="cls-2" points="452.32 887.48 452.32 907.73 447.76 918.52 443.19 907.73 443.19 887.48 452.32 887.48"/>
    <path class="cls-2" d="M458.59,842.61c-1.11-6.47-6.53-10.88-12.36-9.93-4.76.77-8.36,4.88-9.23,9.93h21.6Z"/>
    <path class="cls-2" d="M458.7,845.44h-21.88s-.01,0-.02,0c.01.44.05.88.1,1.32.87,6.8,6.45,11.52,12.47,10.54,5.36-.87,9.25-5.96,9.43-11.86-.03,0-.06.01-.1.01Z"/>
    <path class="cls-2" d="M505.64,829.13v13.33c2.73-.65,4.78-3.39,4.78-6.66s-2.05-6.01-4.78-6.66Z"/>
    <path class="cls-2" d="M503.13,829.13c-2.73.65-4.78,3.39-4.78,6.66s2.05,6.01,4.78,6.66v-13.33Z"/>
    <path class="cls-2" d="M429.04,803.93v17.58h56.96v14.29c0,11.46,8.23,20.76,18.38,20.76h0c10.15,0,18.38-9.29,18.38-20.76v-31.86h-93.73ZM504.38,845.44c-4.71,0-8.54-4.33-8.54-9.65s3.83-9.65,8.54-9.65,8.54,4.33,8.54,9.65-3.83,9.65-8.54,9.65Z"/>
    <rect class="cls-2" x="594.73" y="803.93" width="93.73" height="17.58"/>
    <path class="cls-2" d="M611.13,863.93c-2.41,1.37-3.74,4.48-3.05,7.55.7,3.07,3.19,5.08,5.89,4.98l-2.84-12.53Z"/>
    <path class="cls-2" d="M619.44,868.21c-.7-3.07-3.19-5.08-5.89-4.98l2.84,12.53c2.41-1.37,3.74-4.48,3.05-7.55Z"/>
    <path class="cls-2" d="M602.31,834.34c.5,1.38,1.7,2.36,3.1,2.36s2.6-.98,3.1-2.36h-6.2Z"/>
    <path class="cls-2" d="M608.5,831.51c-.5-1.38-1.7-2.36-3.1-2.36s-2.6.98-3.1,2.36h6.2Z"/>
    <path class="cls-2" d="M594.73,824.34v8.59c0,6.66,4.78,12.06,10.68,12.06s10.68-5.4,10.68-12.06v-8.59h-21.36ZM605.4,839.54c-3.23,0-5.86-2.97-5.86-6.61s2.63-6.61,5.86-6.61,5.86,2.97,5.86,6.61-2.63,6.61-5.86,6.61Z"/>
    <path class="cls-2" d="M669.62,863.23c-2.7-.11-5.19,1.9-5.89,4.98-.7,3.07.64,6.19,3.05,7.55l2.84-12.53Z"/>
    <path class="cls-2" d="M672.05,863.93l-2.84,12.53c2.7.11,5.19-1.9,5.89-4.98.7-3.07-.64-6.19-3.05-7.55Z"/>
    <path class="cls-2" d="M674.67,834.34c.5,1.38,1.7,2.36,3.1,2.36s2.6-.98,3.1-2.36h-6.2Z"/>
    <path class="cls-2" d="M680.87,831.51c-.5-1.38-1.7-2.36-3.1-2.36s-2.6.98-3.1,2.36h6.2Z"/>
    <path class="cls-2" d="M667.09,824.34v8.59c0,6.66,4.78,12.06,10.68,12.06h0c5.9,0,10.68-5.4,10.68-12.06v-8.59h-21.36ZM677.77,839.54c-3.23,0-5.86-2.97-5.86-6.61s2.63-6.61,5.86-6.61,5.86,2.97,5.86,6.61-2.63,6.61-5.86,6.61Z"/>
    <path class="cls-2" d="M677.53,872.19c-.95,4.19-4.28,7.11-8.11,7.11-.7,0-1.4-.1-2.08-.3-4.47-1.29-7.18-6.45-6.04-11.5h0s-2.81-.81-2.81-.81l-3.1,13.71,21.85,6.31,3.1-13.71-2.81-.81Z"/>
    <path class="cls-2" d="M669.41,860.39c.7,0,1.4.1,2.08.3,1.9.55,3.47,1.79,4.57,3.43l4.9-16.76c-1.02.29-2.09.46-3.19.46-3.45,0-6.58-1.51-8.93-3.97l-2.82,17.35c1.04-.52,2.19-.81,3.39-.81Z"/>
    <polygon class="cls-2" points="652.33 882.45 653.77 876.1 648.77 878.5 655.93 902.67 659.25 888 663.13 885.56 652.33 882.45"/>
    <polygon class="cls-2" points="683.85 888.62 680.48 883.81 679.05 890.16 668.26 887.04 670.62 891.28 667.3 905.95 683.85 888.62"/>
    <path class="cls-2" d="M624.69,866.69l-2.82.81s0,0,0,0c1.14,5.05-1.57,10.21-6.04,11.5-.68.2-1.38.3-2.08.3-3.83,0-7.16-2.93-8.11-7.11,0,0,0,0,0,0l-2.81.81,3.1,13.71,21.85-6.31-3.1-13.71Z"/>
    <path class="cls-2" d="M611.69,860.69c.68-.2,1.38-.3,2.08-.3,1.2,0,2.35.29,3.39.81l-2.82-17.35c-2.35,2.45-5.48,3.97-8.93,3.97-1.1,0-2.17-.17-3.19-.46l4.9,16.76c1.1-1.63,2.68-2.88,4.57-3.43Z"/>
    <polygon class="cls-2" points="614.92 887.04 604.13 890.16 602.69 883.81 599.32 888.62 615.88 905.95 612.56 891.28 614.92 887.04"/>
    <polygon class="cls-2" points="629.41 876.1 630.84 882.45 620.05 885.56 623.92 888 627.24 902.67 634.41 878.5 629.41 876.1"/>
    <rect class="cls-2" x="795.16" y="863.93" width="25.06" height="11.76"/>
    <path class="cls-2" d="M821.17,825.71c-1.35-6.46-6.23-11.38-12.23-11.99v31.21c2.99-.3,5.71-1.69,7.85-3.79-1.57-1.63-2.56-3.97-2.56-6.56,0-4.55,3.03-8.31,6.93-8.86Z"/>
    <path class="cls-2" d="M806.44,844.92v-31.21c-6,.61-10.88,5.53-12.23,11.99,3.9.55,6.93,4.31,6.93,8.86,0,2.59-.99,4.92-2.56,6.56,2.14,2.11,4.86,3.49,7.85,3.79Z"/>
    <path class="cls-2" d="M798.64,834.57c0,3.37-2.42,6.1-5.41,6.1s-5.41-2.73-5.41-6.1,2.42-6.1,5.41-6.1,5.41,2.73,5.41,6.1Z"/>
    <path class="cls-2" d="M827.56,834.57c0,3.37-2.42,6.1-5.41,6.1s-5.41-2.73-5.41-6.1,2.42-6.1,5.41-6.1,5.41,2.73,5.41,6.1Z"/>
    <path class="cls-2" d="M760.83,803.93v17.58h9.81l2.96,13.06h11.72c0-4.31,2.72-7.92,6.32-8.75,1.46-8.58,8.11-15,16.06-15s14.6,6.41,16.05,15c3.6.84,6.32,4.44,6.32,8.75h11.72l2.96-13.06h9.81v-17.58h-93.73Z"/>
    <polygon class="cls-2" points="805.86 878.52 793.63 878.52 788.17 888.56 800.48 902.45 805.25 897.06 798.67 889.62 805.86 878.52"/>
    <polygon class="cls-2" points="821.76 878.52 809.52 878.52 816.71 889.62 810.13 897.06 814.9 902.45 827.21 888.56 821.76 878.52"/>
    <path class="cls-2" d="M813.45,861.1v-14.47c-1.83.78-3.77,1.19-5.76,1.19s-3.93-.41-5.75-1.19v14.47h11.51Z"/>
    <polygon class="cls-2" points="787.87 105.71 824.38 85.99 820.59 97.22 801.3 109.98 787.87 105.71"/>
    <polygon class="cls-2" points="843.9 109.28 833.5 109.28 822.63 99.13 826.29 88.27 843.9 109.28"/>
    <rect class="cls-2" x="833.16" y="112.11" width="16.46" height="9.04"/>
    <polygon class="cls-2" points="834.01 126.99 835.48 136.76 832.37 136.76 828.62 126.39 830.7 123.98 837.8 123.98 834.01 126.99"/>
    <polygon class="cls-2" points="854.16 126.39 850.4 136.76 847.3 136.76 848.77 126.99 844.98 123.98 852.07 123.98 854.16 126.39"/>
    <path class="cls-2" d="M783.3,141.66c-2.58.65-4.51,3.25-4.51,6.35s1.93,5.7,4.51,6.35v-12.7Z"/>
    <path class="cls-2" d="M785.81,141.66v12.7c2.58-.65,4.51-3.25,4.51-6.35s-1.93-5.7-4.51-6.35Z"/>
    <path class="cls-2" d="M797.91,168.85v-27.07c0-4.81-3.45-8.71-7.72-8.71h-11.27c-4.26,0-7.72,3.9-7.72,8.71v27.07h-9.98v16.1h63.15v-16.1h-26.47ZM784.56,157.34c-4.56,0-8.27-4.19-8.27-9.34s3.71-9.34,8.27-9.34,8.27,4.19,8.27,9.34-3.71,9.34-8.27,9.34Z"/>
    <path class="cls-2" d="M790.19,130.23c2.66,0,5.09,1.17,6.91,3.06l3.69-20.54-13.79-4.38-7.04,21.86h10.22Z"/>
    <path class="cls-2" d="M665.51,276.22l6.62,4.47h7.07v3.43c-2.81,3.22-6.71,5.22-11.03,5.22-4.79,0-9.06-2.45-11.89-6.3,3.65-2.06,6.16-6.33,6.16-11.24s-2.52-9.2-6.17-11.25c2.84-3.83,7.11-6.29,11.9-6.29,4.31,0,8.22,2,11.03,5.21v3.44h-7.07l-6.62,4.47v8.86Z"/>
    <path class="cls-2" d="M629.64,298.81l-.6.55c.07-.4.11-.8.14-1.21l.46.66Z"/>
    <path class="cls-2" d="M646.68,283.22l-14.94,13.66c0-6.83-3.58-12.73-8.72-15.45l17.16-9.35c.1,4.95,2.74,9.2,6.51,11.14Z"/>
    <path class="cls-2" d="M629.64,298.81l-.6.55c.07-.4.11-.8.14-1.21l.46.66Z"/>
    <path class="cls-2" d="M643.3,318.7c-8.42.08-15.64,5.96-18.68,14.26l-9.91-19.1c.62.09,1.25.14,1.9.14,7.04,0,12.98-5.46,14.66-12.82l12.03,17.52Z"/>
    <path class="cls-2" d="M629.17,295.49c-.63-7.21-6.02-12.85-12.57-12.85s-11.94,5.63-12.57,12.85h25.14Z"/>
    <path class="cls-2" d="M604.04,298.33c.63,7.21,6.02,12.85,12.57,12.85s11.94-5.63,12.57-12.85h-25.14Z"/>
    <path class="cls-2" d="M644.72,333.27v16.9c3.59-.68,6.34-4.21,6.34-8.45s-2.75-7.77-6.34-8.45Z"/>
    <path class="cls-2" d="M642.21,333.27c-3.59.68-6.34,4.21-6.34,8.45s2.75,7.77,6.34,8.45v-16.9Z"/>
    <path class="cls-2" d="M661.34,352.8v-11.08c0-11.15-8-20.18-17.87-20.18h0c-9.87,0-17.87,9.04-17.87,20.18v11.08h-13.54v15.86h62.82v-15.86h-13.54ZM643.47,353.13c-5.57,0-10.11-5.12-10.11-11.41s4.53-11.41,10.11-11.41,10.11,5.12,10.11,11.41-4.53,11.41-10.11,11.41Z"/>
    <path class="cls-2" d="M650.06,262.16c-4.17.69-7.37,4.73-7.37,9.63s3.2,8.94,7.37,9.63v-19.26Z"/>
    <path class="cls-2" d="M652.57,262.16v19.26c4.17-.69,7.37-4.73,7.37-9.63s-3.21-8.94-7.37-9.63Z"/>
    <rect class="cls-2" x="449.42" y="351.08" width="63.12" height="17.58"/>
    <path class="cls-2" d="M455.34,287.16c-.55-2.27-2.39-3.95-4.58-3.95s-4.02,1.68-4.58,3.95h9.15Z"/>
    <path class="cls-2" d="M446.19,289.99c.55,2.27,2.39,3.95,4.58,3.95s4.02-1.68,4.58-3.95h-9.15Z"/>
    <path class="cls-2" d="M462.21,289.88c.04-.43.06-.87.06-1.31,0-7.17-5.15-12.98-11.5-12.98s-11.5,5.81-11.5,12.98,5.15,12.98,11.5,12.98c.39,0,.78-.02,1.16-.07l7.52,8.49,10.28-11.61-7.52-8.49ZM450.77,296.77c-4,0-7.26-3.68-7.26-8.2s3.26-8.2,7.26-8.2,7.26,3.68,7.26,8.2-3.26,8.2-7.26,8.2Z"/>
    <path class="cls-2" d="M474,310.84c-2.12.63-3.69,2.8-3.69,5.39s1.57,4.76,3.69,5.39v-10.78Z"/>
    <path class="cls-2" d="M476.51,310.84v10.78c2.12-.63,3.69-2.8,3.69-5.39s-1.57-4.76-3.69-5.39Z"/>
    <path class="cls-2" d="M485.54,304.62l-14.05-4.25-10.28,11.61,3.76,15.86,14.05,4.25,10.28-11.61-3.76-15.86ZM475.26,324.64c-4.11,0-7.45-3.77-7.45-8.41s3.34-8.41,7.45-8.41,7.45,3.77,7.45,8.41-3.34,8.41-7.45,8.41Z"/>
    <path class="cls-2" d="M478.42,268.48c-2.63,0-4.94,1.51-6.31,3.79l-11.54,5.03c2.59,2.87,4.2,6.86,4.2,11.27,0,.07,0,.13,0,.2l.44.5,10.09-4.39c.95.49,2.01.76,3.12.76,4.2,0,7.6-3.84,7.6-8.58s-3.4-8.58-7.6-8.58Z"/>
    <path class="cls-2" d="M506.41,288.57l-2.9-5.35c-.17-.31-.44-.54-.76-.63l-14.31-4.11c-.11.96-.32,1.88-.62,2.74l13.82,3.97,2.63,4.86c.24.44.65.68,1.07.68.22,0,.45-.07.65-.21.59-.41.78-1.28.41-1.95Z"/>
    <polygon class="cls-2" points="482.14 348.25 482.14 332.57 479.77 335.25 462.93 330.15 462.6 328.75 451.09 348.25 482.14 348.25"/>
    <rect class="cls-2" x="107.27" y="351.08" width="63.12" height="17.58"/>
    <polygon class="cls-2" points="176.82 302.55 170.86 321.69 178 324.53 183.96 305.39 176.82 302.55"/>
    <path class="cls-2" d="M128.07,320.95l6.32,6.33,10.84-12.25c-4.5-1.14-8.04-5.15-9.06-10.22l-11.91,13.45c1.38.66,2.67,1.56,3.81,2.7Z"/>
    <path class="cls-2" d="M118.31,328.49c-.72.22-1.42.61-2.01,1.21-.96.99-1.53,2.34-1.6,3.8-.06,1.47.38,2.88,1.25,3.96.65.82,1.48,1.35,2.36,1.61v-10.59Z"/>
    <path class="cls-2" d="M120.82,328.48v10.59c.73-.22,1.42-.6,2.01-1.21,1.99-2.03,2.15-5.52.34-7.77-.65-.82-1.48-1.35-2.36-1.62Z"/>
    <path class="cls-2" d="M126.4,323.07c-4.39-4.39-11-4.36-15.35.08-4.35,4.44-5.04,11.87-1.61,17.23l5.03,7.86h37.07l-25.14-25.18ZM119.57,342.11c-.13,0-.25,0-.38-.01-1.97-.11-3.78-1.08-5.1-2.73-1.32-1.65-2-3.78-1.9-6.01.1-2.22.96-4.27,2.42-5.76,1.39-1.42,3.14-2.12,4.89-2.14.02,0,.04,0,.06,0,.02,0,.04,0,.07,0,1.99.02,3.97.93,5.41,2.73,2.73,3.41,2.5,8.69-.52,11.77-1.37,1.4-3.11,2.15-4.94,2.15Z"/>
    <path class="cls-2" d="M157.29,300.39c-.62-5.25-4.59-9.31-9.41-9.31s-8.8,4.06-9.41,9.31h18.82Z"/>
    <path class="cls-2" d="M138.47,303.22c.62,5.26,4.59,9.31,9.41,9.31s8.8-4.06,9.41-9.31h-18.82Z"/>
    <path class="cls-2" d="M192.64,326.35c-.26-.72-1-1.07-1.64-.77-2.89,1.35-6.18.61-8.39-1.88-.45-.51-.84-1.09-1.16-1.7l-1,3.2c.13.17.25.34.39.5,1.96,2.21,4.56,3.38,7.21,3.38,1.31,0,2.64-.29,3.91-.88.64-.3.94-1.13.68-1.85Z"/>
    <path class="cls-2" d="M173.22,305.57l-3.5,11.23-13.41-5.33c2.21-2.46,3.58-5.88,3.58-9.66,0-.53-.03-1.06-.08-1.57l13.41,5.33Z"/>
    <path class="cls-2" d="M197.02,312.02c-.46-.95-1.04-1.84-1.74-2.62-2.39-2.69-5.74-3.78-8.91-3.19l-1,3.21c2.76-1.15,5.97-.45,8.14,1.99.53.59.96,1.25,1.31,1.97.23.47.66.74,1.1.74.2,0,.41-.06.6-.17.61-.37.84-1.23.51-1.92Z"/>
    <rect class="cls-2" x="448.71" y="534.37" width="63.12" height="17.58"/>
    <rect class="cls-2" x="495.17" y="475.7" width="20.57" height="18.08"/>
    <path class="cls-2" d="M458.33,471.84c-5.76.71-10.24,6.21-10.24,12.9s4.48,12.19,10.24,12.9v-25.79Z"/>
    <path class="cls-2" d="M460.84,471.84v25.79c5.76-.71,10.24-6.21,10.24-12.9s-4.48-12.19-10.24-12.9Z"/>
    <path class="cls-2" d="M498.57,504.76l-6.1,3.55v8.57l4-1.69,2.25-4.93,2.51-.72c-1.35-1.15-2.32-2.83-2.66-4.76Z"/>
    <path class="cls-2" d="M512.35,504.76c-.34,1.94-1.32,3.61-2.66,4.76l2.51.72,2.25,4.93,4,1.69v-8.57l-6.1-3.55Z"/>
    <path class="cls-2" d="M500.94,496.61v6.58c0,2.82,2.02,5.11,4.52,5.11s4.52-2.29,4.52-5.11v-6.58h-9.05Z"/>
    <path class="cls-2" d="M466.22,470.82v-11.36h-12.39v10.89c1.76-.9,3.71-1.42,5.76-1.42,2.4,0,4.66.69,6.63,1.89Z"/>
    <path class="cls-2" d="M446.31,479.75h-12.95v9.98h12.95c-.46-1.57-.73-3.24-.73-4.99s.26-3.42.73-4.99Z"/>
    <path class="cls-2" d="M492.67,479.75h-19.8c.46,1.57.73,3.24.73,4.99s-.26,3.42-.73,4.99h19.8v-9.98Z"/>
    <path class="cls-2" d="M466.22,514.57v-15.91c-1.97,1.2-4.23,1.89-6.63,1.89-2.05,0-4-.51-5.76-1.42v15.44h12.39Z"/>
    <rect class="cls-2" x="448.71" y="517.4" width="36.85" height="14.14"/>
  </g>
</svg>