<?xml version="1.0" encoding="UTF-8"?>
<svg id="Layer_1" data-name="Layer 1" xmlns="http://www.w3.org/2000/svg" xmlns:xlink="http://www.w3.org/1999/xlink" viewBox="0 0 64 64">
  <defs>
    <style>
      .cls-1 {
        font-family: MyriadPro-Bold, 'Myriad Pro';
        font-size: 8px;
        font-weight: 700;
        stroke: #9c3d23;
        stroke-width: .25px;
      }

      .cls-1, .cls-2 {
        stroke-miterlimit: 10;
      }

      .cls-3 {
        fill: url(#linear-gradient);
      }

      .cls-2 {
        fill: url(#linear-gradient-2);
        stroke: #fff;
        stroke-width: .5px;
      }

      .cls-4 {
        letter-spacing: -.01em;
      }

      .cls-5 {
        letter-spacing: 0em;
      }
    </style>
    <linearGradient id="linear-gradient" x1="0" y1="32.02" x2="63.96" y2="32.02" gradientUnits="userSpaceOnUse">
      <stop offset=".47" stop-color="#e8ad20"/>
      <stop offset=".67" stop-color="#db651e"/>
      <stop offset=".81" stop-color="#a95022"/>
      <stop offset="1" stop-color="#693529"/>
    </linearGradient>
    <linearGradient id="linear-gradient-2" x1="1.83" y1="31.41" x2="59.38" y2="31.41" xlink:href="#linear-gradient"/>
  </defs>
  <g id="outline">
    <rect class="cls-3" y=".04" width="63.96" height="63.96"/>
    <path class="cls-2" d="M59.04,29.18c-1.33-1.15-2.86-2.01-4.53-2.55-1.37-.44-2.82-.65-4.27-.61l.28-1.93c.12-.81-.21-1.63-.86-2.13-.65-.5-1.53-.61-2.28-.28l-5.88,2.55c-.38.17-.8.1-1.11-.17s-.44-.67-.33-1.07l2.35-8.94c.19-.74,0-1.52-.51-2.09s-1.27-.84-2.03-.73l-2.65.4c-.29-1.28-.87-2.89-2.01-4.48-1.08-1.49-2.51-2.74-4.14-3.61-.29-.16-.65-.16-.94,0-1.63.87-3.06,2.12-4.14,3.61-1.15,1.59-1.72,3.19-2.01,4.48l-2.65-.4c-.76-.11-1.52.16-2.03.73-.51.57-.7,1.35-.5,2.09l2.35,8.94c.11.4-.02.8-.33,1.07s-.73.33-1.11.17l-5.88-2.55c-.76-.33-1.63-.22-2.28.28-.65.5-.98,1.32-.86,2.13l.28,1.94c-1.45-.03-2.9.17-4.27.61-1.67.54-3.2,1.39-4.53,2.55-.26.22-.38.56-.34.89.19,1.4.76,3.48,2.34,5.47.83,1.05,1.86,1.94,3.01,2.64l-1.15,1.67c-.46.66-.53,1.5-.2,2.23s1.01,1.22,1.81,1.31l8.29.94c.36.04.66.25.83.58.16.33.15.69-.03,1.01l-2.02,3.47c-.41.71-.42,1.56,0,2.27.41.71,1.15,1.14,1.97,1.14h1.46c2.65,0,5.22-.93,7.25-2.63l4.22-3.52v2.27c0,2.88-.85,5.67-2.45,8.06l-.6.9c-.31.46-.18,1.08.27,1.39.17.12.36.17.56.17.32,0,.64-.15.83-.44l.6-.9c1.82-2.72,2.79-5.9,2.79-9.18v-2.27l4.22,3.53c2.03,1.69,4.61,2.63,7.25,2.63h1.46c.82,0,1.56-.43,1.97-1.14.41-.71.41-1.56,0-2.27l-2.02-3.47c-.18-.31-.19-.68-.03-1.01s.46-.54.83-.58l8.29-.94c.8-.09,1.48-.58,1.81-1.31s.26-1.57-.2-2.23l-1.15-1.67c1.15-.69,2.18-1.59,3.01-2.64,1.58-1.99,2.14-4.07,2.33-5.47.05-.34-.08-.67-.34-.89ZM55.47,34.29c-1.12,1.4-2.42,2.2-3.33,2.62-.27.12-.46.36-.54.65-.08.28-.03.59.14.83l1.79,2.59c.07.1.05.2.02.26-.03.06-.09.14-.22.16l-8.29.94c-1.03.12-1.92.74-2.39,1.67-.47.93-.43,2.02.09,2.91l2.02,3.47c.06.11.04.21,0,.27s-.1.13-.23.13h-1.46c-2.18,0-4.3-.77-5.97-2.16l-5.5-4.59v-4.4l7.58-2.38s0,0,0,0l7.43-2.33c.53-.17.82-.73.65-1.25-.17-.53-.72-.82-1.25-.65l-5.66,1.77.77-2.59c.16-.53-.14-1.09-.67-1.24-.53-.16-1.09.14-1.24.67l-1.15,3.88-6.46,2.03v-12.7l3.34-2.19c.46-.3.59-.92.29-1.39-.3-.46-.92-.59-1.38-.29l-2.24,1.47v-5.01c0-.55-.45-1-1-1s-1,.45-1,1v20.1l-14.42-4.52c-.53-.17-1.09.13-1.25.65-.17.53.13,1.09.65,1.25l6.38,2-1.9,2.05c-.38.4-.35,1.04.06,1.41.19.18.44.27.68.27.27,0,.54-.11.74-.32l2.54-2.75,6.53,2.05v4.4l-5.51,4.59c-1.67,1.4-3.79,2.16-5.97,2.16h-1.46c-.13,0-.2-.07-.23-.13-.03-.06-.06-.16,0-.27l2.02-3.47c.52-.9.56-1.99.09-2.91-.47-.93-1.36-1.55-2.39-1.67l-8.29-.94c-.12-.01-.19-.09-.22-.16-.03-.06-.05-.16.02-.26l1.79-2.59c.17-.24.22-.54.14-.83s-.27-.52-.54-.65c-.9-.42-2.21-1.22-3.33-2.62-1.11-1.39-1.61-2.85-1.83-3.96,1.02-.8,2.16-1.41,3.4-1.8,1.5-.48,3.13-.63,4.7-.44.31.04.62-.07.84-.29.22-.22.32-.54.27-.84l-.47-3.17c-.02-.13.05-.21.1-.25s.15-.08.27-.03l5.88,2.55c1.08.47,2.31.28,3.21-.49.9-.77,1.27-1.96.97-3.1l-2.35-8.95c-.03-.12.02-.2.06-.25.04-.05.12-.1.24-.09l3.61.54c.27.04.53-.03.75-.19.21-.16.35-.4.39-.66.16-1.15.61-2.88,1.83-4.57.8-1.1,1.83-2.05,2.99-2.75,1.17.71,2.2,1.65,2.99,2.75,1.23,1.7,1.67,3.43,1.83,4.58.04.27.18.5.39.66.21.16.49.23.75.19l3.61-.54c.11-.02.2.04.24.09.04.05.09.13.06.25l-2.36,8.95c-.3,1.14.07,2.33.97,3.1.9.77,2.13.96,3.21.49l5.88-2.55c.12-.05.21,0,.27.03.06.04.12.12.1.25l-.47,3.17c-.04.31.06.62.27.84s.53.33.84.29c1.57-.19,3.2-.04,4.7.44,1.24.4,2.38,1,3.4,1.8-.22,1.11-.72,2.56-1.83,3.96Z"/>
    <text class="cls-1" transform="translate(1.2 61.78) scale(1.09 1)"><tspan x="0" y="0">U </tspan><tspan class="cls-4" x="7.07" y="0">C</tspan><tspan x="11.75" y="0">an </tspan><tspan class="cls-5" x="22.28" y="0">L</tspan><tspan x="26.3" y="0">earn</tspan></text>
  </g>
</svg>