<?xml version="1.0" encoding="UTF-8"?>
<svg id="Layer_2" data-name="Layer 2" xmlns="http://www.w3.org/2000/svg" viewBox="0 0 1000 1000">
  <defs>
    <style>
      .cls-1 {
        fill: #414042;
        stroke: #2e3192;
        stroke-miterlimit: 10;
        stroke-width: 8px;
      }
    </style>
  </defs>
  <path class="cls-1" d="M434.18,484.82c10.36-12.68,24.6-22,40.88-26.3l-50.72-78.71c7.02-14.35,6.63-31.89-2.65-46.29-14.11-21.89-43.29-28.2-65.17-14.09-21.89,14.11-28.2,43.29-14.09,65.17,9.28,14.41,25.1,22.01,41.06,21.54l50.7,78.68Z"/>
  <path class="cls-1" d="M671.04,263.7c6.62,10.27,3.66,23.97-6.61,30.59-10.27,6.62-23.97,3.66-30.59-6.61-6.62-10.27-3.66-23.97,6.61-30.59,10.27-6.62,23.97-3.66,30.59,6.61Z"/>
  <path class="cls-1" d="M623.72,379.28c-3.31,0-6-2.69-6-6v-30.59c0-2.37,1.39-4.51,3.55-5.48l28.71-12.81c3.02-1.35,6.57,0,7.93,3.03,1.35,3.03,0,6.57-3.04,7.92l-25.16,11.23v26.7c0,3.31-2.69,6-6,6Z"/>
  <path class="cls-1" d="M681.15,379.28c-3.31,0-6-2.69-6-6v-26.7l-25.16-11.23c-3.03-1.35-4.38-4.9-3.04-7.92,1.35-3.03,4.9-4.39,7.93-3.03l28.71,12.81c2.16.96,3.55,3.11,3.55,5.48v30.59c0,3.31-2.69,6-6,6Z"/>
  <path class="cls-1" d="M501.12,506.97v55.11c12.68-2.76,22.21-14.06,22.21-27.55s-9.53-24.79-22.21-27.55Z"/>
  <path class="cls-1" d="M489.12,506.97c-12.68,2.76-22.21,14.06-22.21,27.55s9.53,24.79,22.21,27.55v-55.11Z"/>
  <path class="cls-1" d="M643.36,576.28h-81.55v-41.76c0-36.83-29.86-66.69-66.69-66.69h0c-36.83,0-66.69,29.86-66.69,66.69v41.76h-28.39c-14.71,0-26.63,11.92-26.63,26.63v36.56h296.57v-36.56c0-14.71-11.92-26.63-26.63-26.63ZM495.12,574.73c-22.17,0-40.21-18.04-40.21-40.21s18.04-40.21,40.21-40.21,40.21,18.04,40.21,40.21-18.04,40.21-40.21,40.21Z"/>
  <path class="cls-1" d="M621.37,261.67h-83.33c-.41-.77-.83-1.54-1.31-2.28-9-13.97-27.63-18-41.61-9-13.97,9-18,27.63-9,41.61,9.01,13.97,27.63,18,41.61,9,4.52-2.91,7.98-6.84,10.31-11.28h83.33c-4.11-9.09-3.93-19.31,0-28.04Z"/>
  <path class="cls-1" d="M652.46,309.82c-2.05,0-4.05-.24-6.02-.59v20.65c0,3.31,2.69,6,6,6s6-2.69,6-6v-20.64c-1.97.35-3.96.59-5.98.59Z"/>
  <path class="cls-1" d="M431.77,327.02c3.52,5.46,6.01,11.34,7.56,17.39l50.57-32.59c-5.49-3.27-10.28-7.75-13.87-13.32-3.58-5.55-5.72-11.74-6.43-18.12l-50.52,32.55c4.88,3.93,9.18,8.65,12.68,14.09Z"/>
</svg>