<?xml version="1.0" encoding="UTF-8"?>
<svg id="Layer_2" data-name="Layer 2" xmlns="http://www.w3.org/2000/svg" viewBox="0 0 1000 1000">
  <defs>
    <style>
      .cls-1 {
        fill: #414042;
        stroke: #2e3192;
        stroke-miterlimit: 10;
        stroke-width: 8px;
      }
    </style>
  </defs>
  <polygon class="cls-1" points="772.76 834.7 702.61 791.14 639.68 791.14 615.76 806.62 615.76 834.7 615.76 881.81 806.75 881.81 806.75 834.7 772.76 834.7"/>
  <path class="cls-1" d="M701.57,783.54h-60.85l7.16-52.6c6.4,5.06,14.47,8.1,23.25,8.1s16.88-3.04,23.28-8.1l7.16,52.6Z"/>
  <path class="cls-1" d="M738.48,652.74l-31.27,38.43c-3.52-12.4-13.31-22.19-25.73-25.73l38.41-31.27c1.49,4.15,3.9,8.07,7.21,11.38,3.29,3.26,7.16,5.69,11.39,7.19Z"/>
  <path class="cls-1" d="M870.01,612.71v22.19h-92.5c1.37-3.49,2.07-7.26,2.07-11.11s-.71-7.62-2.07-11.08h92.5Z"/>
  <path class="cls-1" d="M857.79,642.49v29.73c0,11.87-9.64,21.48-21.5,21.48s-21.48-9.61-21.48-21.48v-29.73h42.98Z"/>
  <rect class="cls-1" x="828.82" y="568.47" width="14.95" height="36.66"/>
  <rect class="cls-1" x="784.6" y="585.9" width="30.21" height="19.23"/>
  <path class="cls-1" d="M811.34,687.1l-18.87,13.69v16.09c0,2.1-1.69,3.8-3.8,3.8s-3.79-1.7-3.79-3.8v-18.01c0-1.21.58-2.35,1.57-3.09l21.81-15.81c.71,2.56,1.75,4.93,3.09,7.13Z"/>
  <path class="cls-1" d="M887.72,698.86v18.01c0,2.1-1.72,3.8-3.8,3.8s-3.79-1.7-3.79-3.8v-16.09l-18.87-13.69c1.34-2.2,2.38-4.6,3.09-7.16l21.81,15.84c.99.73,1.57,1.87,1.57,3.09Z"/>
  <path class="cls-1" d="M641.47,705.29c1.87,14.74,14.43,26.15,29.68,26.15s27.81-11.41,29.68-26.15h-59.35Z"/>
  <path class="cls-1" d="M700.82,697.7c-1.87-14.74-14.43-26.15-29.68-26.15s-27.81,11.41-29.68,26.15h59.35Z"/>
  <path class="cls-1" d="M765.21,607.42c-3.56-3.56-7.98-5.69-12.59-6.45v45.65c4.61-.76,9.04-2.9,12.59-6.45,9.04-9.04,9.04-23.71,0-32.75Z"/>
  <path class="cls-1" d="M745.03,600.98c-4.6.76-9.02,2.9-12.57,6.45-9.04,9.04-9.04,23.71,0,32.75,3.55,3.55,7.97,5.68,12.57,6.45v-45.65Z"/>
  <rect class="cls-1" x="157.6" y="834.7" width="190.99" height="47.1"/>
  <polygon class="cls-1" points="310.63 827.11 194.91 827.11 180.21 808.11 226.36 761.96 310.63 827.11"/>
  <path class="cls-1" d="M384.48,683.28l-24.64,24.62-54.95-54.95c11.56-3.92,20.72-13.08,24.62-24.64l54.98,54.98Z"/>
  <path class="cls-1" d="M284.29,654.16l-68.39,68.41-6.4-23.93-23.93-6.4,68.41-68.41c3.16,15.18,15.13,27.15,30.31,30.33Z"/>
  <path class="cls-1" d="M159.4,725.81c-3.67.72-7.17,2.5-10,5.33-3.69,3.69-5.72,8.59-5.72,13.8s2.03,10.11,5.72,13.8c2.77,2.77,6.24,4.61,10,5.35v-38.28Z"/>
  <path class="cls-1" d="M166.99,725.81v38.28c3.77-.74,7.23-2.57,10.01-5.35,7.61-7.61,7.61-19.99,0-27.6-2.84-2.84-6.34-4.61-10.01-5.33Z"/>
  <path class="cls-1" d="M203.3,704.84l-54.78-14.68-40.1,40.1,14.68,54.78,54.78,14.68,40.1-40.1-14.68-54.78ZM182.36,764.11c-5.12,5.12-11.93,7.94-19.17,7.94s-14.05-2.82-19.17-7.94c-5.12-5.12-7.94-11.93-7.94-19.17s2.82-14.05,7.94-19.17c5.23-5.23,12.08-7.86,18.96-7.92.07,0,.14-.02.21-.02s.14.02.21.02c6.87.05,13.73,2.69,18.96,7.92,10.57,10.57,10.57,27.77,0,38.33Z"/>
  <path class="cls-1" d="M260.99,619.58c1.88,15.67,15.19,27.82,31.37,27.82s29.49-12.15,31.37-27.82h-62.74Z"/>
  <path class="cls-1" d="M323.72,611.99c-1.88-15.67-15.19-27.82-31.37-27.82s-29.49,12.15-31.37,27.82h62.74Z"/>
  <path class="cls-1" d="M406.95,725.01l-26.74-26.74-5.37,5.36,26.74,26.74c.74.74,1.71,1.11,2.68,1.11s1.94-.37,2.68-1.11c1.48-1.48,1.48-3.88,0-5.37Z"/>
  <path class="cls-1" d="M251.03,202.17l-50.95-20.28,18.97-47.65,50.95,20.28c13.16,5.24,19.58,20.15,14.34,33.31h0c-5.24,13.16-20.15,19.58-33.31,14.34Z"/>
  <path class="cls-1" d="M297.09,266.21c-16.94,1.89-30.11,16.24-30.11,33.68s13.17,31.8,30.11,33.68v-67.37Z"/>
  <path class="cls-1" d="M304.68,266.21v67.37c16.94-1.89,30.11-16.24,30.11-33.68s-13.17-31.79-30.11-33.68Z"/>
  <path class="cls-1" d="M218.06,254.13c-1.29-7.64-6.39-14.44-14.11-17.52-11.77-4.69-25.11,1.06-29.79,12.83-.61,1.54-1.04,3.12-1.31,4.69h45.21Z"/>
  <path class="cls-1" d="M172.86,261.72c1.29,7.64,6.39,14.44,14.11,17.51,11.77,4.69,25.11-1.06,29.79-12.83.61-1.54,1.04-3.11,1.3-4.69h-45.21Z"/>
  <path class="cls-1" d="M329.36,201.67l-36.78-14.64c-.33,1.22-.71,2.42-1.19,3.61-.47,1.19-1.03,2.33-1.62,3.44l36.79,14.65c.46.18.93.27,1.4.27,1.51,0,2.93-.91,3.53-2.39.78-1.95-.18-4.15-2.12-4.93Z"/>
  <path class="cls-1" d="M195.47,227.39c3.87,0,7.66.73,11.28,2.17,5.09,2.03,9.32,5.29,12.51,9.3l14.14-35.53-27.99-11.14-14.13,35.5c1.37-.19,2.77-.3,4.19-.3Z"/>
  <path class="cls-1" d="M334.63,323.95c-7.53,10.53-19.84,17.43-33.74,17.43-15.81,0-29.58-8.9-36.58-21.94l-59.87,31.39h-43.58v47.1h190.99v-47.1l-17.2-26.88Z"/>
  <path class="cls-1" d="M259.39,299.89c0-13.89,6.88-26.18,17.4-33.71l-51.95-16.37c1.72,6.2,1.54,12.98-1.02,19.41-2.53,6.35-6.98,11.47-12.53,14.83l48.87,23.75c-.5-2.56-.78-5.2-.78-7.9Z"/>
  <rect class="cls-1" x="617.9" y="350.84" width="190.99" height="47.1"/>
  <rect class="cls-1" x="793.75" y="205.37" width="38.96" height="52.82" transform="translate(402.08 -507.16) rotate(45)"/>
  <path class="cls-1" d="M723.63,172.58v-54.38c-5.87.8-11.54,3.42-16.05,7.93-10.96,10.96-10.96,28.73,0,39.69,4.56,4.56,10.31,7.2,16.26,7.96-.13-.38-.21-.78-.21-1.2Z"/>
  <path class="cls-1" d="M747.27,126.13c-4.51-4.51-10.18-7.13-16.05-7.93v54.38c0,.42-.08.82-.21,1.2,5.94-.76,11.7-3.4,16.26-7.96,10.96-10.96,10.96-28.73,0-39.69Z"/>
  <path class="cls-1" d="M680.38,228.96c-1.9-18.23-17.31-32.45-36.04-32.45s-34.14,14.22-36.04,32.45h72.08Z"/>
  <path class="cls-1" d="M608.3,236.55c1.9,18.23,17.31,32.45,36.04,32.45s34.14-14.22,36.04-32.45h-72.08Z"/>
  <polygon class="cls-1" points="847.17 288.53 827.28 283.17 817.64 273.53 819.59 263.71 808.34 274.96 775.42 242.05 771.44 246.03 789.68 282.88 816.93 310.13 864.46 305.81 847.17 288.53"/>
  <polygon class="cls-1" points="864.34 208.23 827.48 189.98 823.5 193.96 856.42 226.88 845.16 238.14 854.99 236.18 864.63 245.82 869.99 265.72 887.27 283 891.59 235.48 864.34 208.23"/>
  <path class="cls-1" d="M760.55,159.1c-1.74,4.4-4.37,8.53-7.92,12.08-3.5,3.5-7.6,6.16-12.07,7.93l43.53,43.53,20-20-43.54-43.54Z"/>
  <path class="cls-1" d="M686.73,221.81l40.21-40.21c-9.34-.12-18.11-3.8-24.73-10.42-5.13-5.13-8.35-11.44-9.69-18.06l-37.24,37.24c15.38,3.97,27.48,16.07,31.45,31.45Z"/>
  <path class="cls-1" d="M749.53,343.25l-68.27-86.96c-7.79,12.18-21.41,20.3-36.92,20.3-9.93,0-19.08-3.36-26.44-8.95v75.62h131.63Z"/>
</svg>