<?xml version="1.0" encoding="UTF-8"?>
<svg id="Layer_2" data-name="Layer 2" xmlns="http://www.w3.org/2000/svg" viewBox="0 0 1000 1000">
  <defs>
    <style>
      .cls-1 {
        fill: #414042;
        stroke: #2e3192;
        stroke-miterlimit: 10;
        stroke-width: 8px;
      }
    </style>
  </defs>
  <ellipse class="cls-1" cx="913.21" cy="353.13" rx="33.21" ry="39.67"/>
  <path class="cls-1" d="M922.01,455.71c-24.33,3-43.31,27.56-43.31,57.42s18.98,54.42,43.31,57.42v-114.84Z"/>
  <path class="cls-1" d="M932.05,455.71v114.84c24.33-3,43.3-27.56,43.3-57.42s-18.97-54.42-43.3-57.42Z"/>
  <path class="cls-1" d="M805.32,607.67c-2.19-9.14-9.23-15.85-17.57-15.85s-15.38,6.71-17.57,15.85h35.15Z"/>
  <path class="cls-1" d="M911.83,655.43h-68.26v-41.76c0-36.83-24.99-66.69-55.82-66.69h0c-30.83,0-55.82,29.86-55.82,66.69v41.76h-23.76c-12.31,0-22.29,11.92-22.29,26.63v36.56h248.24v-36.56c0-14.71-9.98-26.63-22.29-26.63ZM787.74,647.52c-15.62,0-28.34-15.19-28.34-33.85s12.71-33.85,28.34-33.85,28.34,15.19,28.34,33.85-12.71,33.85-28.34,33.85Z"/>
  <path class="cls-1" d="M770.17,619.67c2.19,9.14,9.23,15.85,17.57,15.85s15.38-6.71,17.57-15.85h-35.15Z"/>
  <path class="cls-1" d="M723.83,425.25c-2.48-24.65-20.02-43.77-41.33-43.77s-38.84,19.12-41.32,43.77h82.65Z"/>
  <path class="cls-1" d="M641.18,437.25c2.48,24.65,20.02,43.77,41.32,43.77s38.84-19.12,41.33-43.77h-82.65Z"/>
  <path class="cls-1" d="M979.03,397.68c-11.9,0-22.46-6.68-29.27-17.05-7.43,14.05-20.35,23.52-35.15,24.09,10.79,12.47,25.46,20.16,41.66,20.16,10.38,0,20.15-3.15,28.67-8.69v-19.12c-1.93.37-3.89.61-5.9.61Z"/>
  <path class="cls-1" d="M956.26,281.38c-16.2,0-30.86,7.7-41.65,20.16,14.8.57,27.72,10.04,35.15,24.09,6.82-10.37,17.38-17.05,29.27-17.05,2.01,0,3.98.24,5.9.61v-19.12c-8.52-5.54-18.29-8.69-28.67-8.69Z"/>
  <path class="cls-1" d="M792.77,419.24l89.35-30.25c-7.52-9.3-12.17-21.93-12.17-35.85,0-3.78.36-7.47,1.01-11.02l-148.35,50.23c.94,1.38,1.83,2.81,2.67,4.29l67.49,22.6Z"/>
  <path class="cls-1" d="M872.02,490.02c3.05-10.29,8.02-19.5,14.46-26.94l-155.15-51.95c1.83,6.32,2.87,13.07,2.87,20.12,0,19.09-7.29,36.18-18.72,47.52l117.58,39.37,38.96-28.12Z"/>
  <path class="cls-1" d="M817.37,543.49c21.46,12.98,36.24,39.53,36.24,70.18v1.25l51.53-37.19c-21.36-10.37-36.48-35.4-36.48-64.6,0-2.32.1-4.61.29-6.87l-51.58,37.23Z"/>
  <path class="cls-1" d="M97.97,563.97c8.67-12.68,20.6-22,34.22-26.3l-42.46-78.71c5.88-14.35,5.55-31.89-2.22-46.29-11.81-21.89-36.23-28.2-54.56-14.09-18.32,14.11-23.6,43.29-11.8,65.17,7.77,14.41,21.01,22.01,34.37,21.54l42.44,78.68Z"/>
  <path class="cls-1" d="M296.24,342.86c5.54,10.27,3.06,23.97-5.54,30.59-8.6,6.62-20.06,3.66-25.6-6.61-5.54-10.27-3.06-23.97,5.54-30.59,8.6-6.62,20.06-3.66,25.6,6.61Z"/>
  <path class="cls-1" d="M256.63,458.43c-2.77,0-5.02-2.69-5.02-6v-30.59c0-2.37,1.16-4.51,2.98-5.48l24.04-12.81c2.53-1.35,5.5,0,6.63,3.03,1.13,3.03,0,6.57-2.54,7.92l-21.06,11.23v26.7c0,3.31-2.25,6-5.02,6Z"/>
  <path class="cls-1" d="M304.7,458.43c-2.77,0-5.02-2.69-5.02-6v-26.7l-21.06-11.23c-2.53-1.35-3.67-4.9-2.54-7.92,1.13-3.03,4.1-4.39,6.63-3.03l24.03,12.81c1.81.96,2.98,3.11,2.98,5.48v30.59c0,3.31-2.25,6-5.02,6Z"/>
  <path class="cls-1" d="M154,586.12v55.11c10.61-2.76,18.59-14.06,18.59-27.55s-7.98-24.79-18.59-27.55Z"/>
  <path class="cls-1" d="M143.96,586.12c-10.61,2.76-18.59,14.06-18.59,27.55s7.98,24.79,18.59,27.55v-55.11Z"/>
  <path class="cls-1" d="M273.07,655.43h-68.26v-41.76c0-36.83-24.99-66.69-55.82-66.69h0c-30.83,0-55.82,29.86-55.82,66.69v41.76h-23.76c-12.31,0-22.29,11.92-22.29,26.63v36.56h248.24v-36.56c0-14.71-9.98-26.63-22.29-26.63ZM148.98,653.88c-18.56,0-33.66-18.04-33.66-40.21s15.1-40.21,33.66-40.21,33.66,18.04,33.66,40.21-15.1,40.21-33.66,40.21Z"/>
  <path class="cls-1" d="M254.66,340.82h-69.75c-.34-.77-.7-1.54-1.1-2.28-7.54-13.97-23.13-18-34.83-9-11.7,9-15.07,27.63-7.53,41.61,7.54,13.97,23.13,18,34.83,9,3.78-2.91,6.68-6.84,8.63-11.28h69.75c-3.44-9.09-3.29-19.31,0-28.04Z"/>
  <path class="cls-1" d="M280.69,388.97c-1.71,0-3.39-.24-5.04-.59v20.65c0,3.31,2.25,6,5.02,6s5.02-2.69,5.02-6v-20.64c-1.65.35-3.31.59-5.01.59Z"/>
  <path class="cls-1" d="M95.96,406.17c2.95,5.46,5.03,11.34,6.33,17.39l42.33-32.59c-4.6-3.27-8.6-7.75-11.61-13.32-3-5.55-4.79-11.74-5.38-18.12l-42.28,32.55c4.08,3.93,7.68,8.65,10.61,14.09Z"/>
</svg>